<svg xmlns="http://www.w3.org/2000/svg" xmlns:xlink="http://www.w3.org/1999/xlink" width="500" zoomAndPan="magnify" viewBox="0 0 375 374.999991" height="500" preserveAspectRatio="xMidYMid meet" version="1.0"><path fill="#f1511b" d="M 0.03125 0 L 178.214844 0 L 178.214844 178.183594 L 0.03125 178.183594 Z M 0.03125 0 " fill-opacity="1" fill-rule="nonzero"/><path fill="#80cc28" d="M 374.96875 178.183594 L 196.769531 178.183594 L 196.769531 0 L 374.953125 0 L 374.953125 178.183594 Z M 374.96875 178.183594 " fill-opacity="1" fill-rule="nonzero"/><path fill="#00adef" d="M 0.03125 196.816406 L 178.214844 196.816406 L 178.214844 375 L 0.03125 375 Z M 0.03125 196.816406 " fill-opacity="1" fill-rule="nonzero"/><path fill="#fbbc09" d="M 374.96875 375 L 196.769531 375 L 196.769531 196.816406 L 374.953125 196.816406 L 374.953125 375 Z M 374.96875 375 " fill-opacity="1" fill-rule="nonzero"/><path fill="#1e1e42" d="M 364.832031 180.21875 C 364.441406 176.59375 363.757812 173.023438 362.785156 169.507812 C 349.253906 119.617188 231.570312 12.90625 187.785156 16.207031 C 143.414062 13.859375 26.207031 118.675781 12.359375 168.148438 C 11.359375 171.660156 10.648438 175.230469 10.230469 178.855469 C 9.644531 184.160156 9.621094 189.464844 10.167969 194.769531 C 10.558594 198.394531 11.242188 201.964844 12.214844 205.480469 C 25.746094 255.382812 143.429688 362.085938 187.210938 358.792969 C 231.585938 361.132812 348.792969 256.316406 362.632812 206.847656 C 363.636719 203.335938 364.347656 199.765625 364.769531 196.136719 C 365.355469 190.832031 365.378906 185.527344 364.832031 180.21875 Z M 364.832031 180.21875 " fill-opacity="1" fill-rule="nonzero"/><path fill="#ffface" d="M 131.660156 193.300781 C 131.660156 193.300781 128.953125 194.210938 122.734375 194.210938 C 99.273438 194.210938 107.191406 166.730469 92.957031 166.730469 L 89.453125 166.730469 L 89.453125 193.605469 L 71.183594 193.605469 L 71.183594 123.414062 L 89.453125 123.414062 L 89.453125 152.292969 L 93.367188 152.292969 C 103.09375 152.390625 108.105469 144.675781 108.105469 123.414062 L 126.054688 123.414062 C 126.054688 143.171875 120.140625 153.898438 112.414062 158.609375 C 122.242188 165.929688 118.632812 179.164062 128.5625 179.164062 L 131.660156 179.164062 Z M 131.660156 193.300781 " fill-opacity="1" fill-rule="nonzero"/><path fill="#ffface" d="M 139.851562 193.605469 L 139.851562 123.414062 L 186.277344 123.414062 L 186.277344 137.851562 L 158.117188 137.851562 L 158.117188 151.820312 L 178.90625 151.820312 L 178.90625 165.929688 L 158.117188 165.929688 L 158.117188 179.160156 L 186.277344 179.160156 L 186.277344 193.597656 Z M 139.851562 193.605469 " fill-opacity="1" fill-rule="nonzero"/><path fill="#ffface" d="M 193.9375 193.605469 L 193.9375 123.414062 L 240.367188 123.414062 L 240.367188 137.851562 L 212.1875 137.851562 L 212.1875 151.820312 L 232.945312 151.820312 L 232.945312 165.929688 L 212.1875 165.929688 L 212.1875 179.160156 L 240.367188 179.160156 L 240.367188 193.597656 Z M 193.9375 193.605469 " fill-opacity="1" fill-rule="nonzero"/><path fill="#ffface" d="M 274.792969 122.839844 C 256.441406 122.839844 242.304688 135.167969 242.304688 158.636719 C 242.304688 182.101562 256.542969 194.234375 274.792969 194.234375 C 275.175781 194.234375 275.5625 194.234375 275.945312 194.234375 L 278.113281 181.425781 L 267.515625 184.238281 L 270.882812 168.285156 L 264.582031 170.316406 L 266.753906 138.960938 L 287.511719 135.660156 L 281.980469 156.671875 L 291.652344 155.410156 L 285.925781 171 L 292.222656 171 L 280.128906 193.835938 C 295.746094 191.664062 307.28125 179.734375 307.28125 158.609375 C 307.28125 135.144531 293.144531 122.839844 274.792969 122.839844 Z M 274.792969 122.839844 " fill-opacity="1" fill-rule="nonzero"/><path fill="#ffface" d="M 136.875 217.769531 C 136.875 217.769531 130.40625 274.371094 136.875 288.117188 C 143.347656 301.863281 182.53125 299.457031 184.753906 293.785156 C 186.976562 288.117188 186.988281 226.671875 180.519531 217.78125 C 174.050781 208.894531 165.175781 225.046875 136.875 217.769531 Z M 136.875 217.769531 " fill-opacity="1" fill-rule="nonzero"/><path fill="#ffface" d="M 188.988281 217.769531 C 188.988281 217.769531 186.582031 291.667969 190.246094 293.230469 C 211.191406 302.316406 235.683594 290.410156 237.921875 284.738281 C 240.15625 279.070312 239.132812 226.675781 232.660156 217.789062 C 226.191406 208.898438 217.296875 225.046875 188.988281 217.769531 Z M 188.988281 217.769531 " fill-opacity="1" fill-rule="nonzero"/><path fill="#7eaac1" d="M 76.375 207.449219 C 76.375 207.449219 189.277344 274.855469 295.863281 207.449219 " fill-opacity="1" fill-rule="nonzero"/><path fill="#eb5b56" d="M 213.554688 203.375 C 213.554688 217.800781 201.863281 222.902344 187.429688 222.902344 C 173 222.902344 161.304688 217.800781 161.304688 203.375 C 161.304688 202.519531 161.347656 201.664062 161.433594 200.8125 C 161.515625 199.960938 161.640625 199.117188 161.808594 198.277344 C 161.976562 197.4375 162.183594 196.609375 162.429688 195.792969 C 162.679688 194.972656 162.96875 194.167969 163.296875 193.378906 C 163.621094 192.585938 163.988281 191.816406 164.390625 191.058594 C 164.792969 190.304688 165.234375 189.574219 165.710938 188.859375 C 166.183594 188.148438 166.695312 187.464844 167.238281 186.800781 C 167.777344 186.140625 168.351562 185.507812 168.957031 184.902344 C 169.5625 184.296875 170.195312 183.722656 170.859375 183.179688 C 171.519531 182.636719 172.207031 182.128906 172.917969 181.652344 C 173.628906 181.179688 174.359375 180.738281 175.117188 180.335938 C 175.871094 179.933594 176.644531 179.566406 177.433594 179.238281 C 178.222656 178.910156 179.027344 178.625 179.847656 178.375 C 180.664062 178.128906 181.496094 177.917969 182.335938 177.753906 C 183.171875 177.585938 184.019531 177.460938 184.871094 177.375 C 185.722656 177.292969 186.574219 177.25 187.429688 177.25 C 188.285156 177.25 189.140625 177.292969 189.992188 177.375 C 190.84375 177.460938 191.6875 177.585938 192.527344 177.753906 C 193.367188 177.917969 194.195312 178.128906 195.015625 178.375 C 195.832031 178.625 196.636719 178.910156 197.429688 179.238281 C 198.21875 179.566406 198.992188 179.933594 199.746094 180.335938 C 200.5 180.738281 201.234375 181.179688 201.945312 181.652344 C 202.65625 182.128906 203.34375 182.636719 204.003906 183.179688 C 204.664062 183.722656 205.296875 184.296875 205.902344 184.902344 C 206.507812 185.507812 207.082031 186.140625 207.625 186.800781 C 208.167969 187.464844 208.675781 188.148438 209.152344 188.859375 C 209.628906 189.574219 210.066406 190.304688 210.46875 191.058594 C 210.875 191.816406 211.238281 192.585938 211.566406 193.378906 C 211.894531 194.167969 212.183594 194.972656 212.429688 195.792969 C 212.679688 196.609375 212.886719 197.4375 213.054688 198.277344 C 213.21875 199.117188 213.34375 199.960938 213.429688 200.8125 C 213.511719 201.664062 213.554688 202.519531 213.554688 203.375 Z M 213.554688 203.375 " fill-opacity="1" fill-rule="nonzero"/></svg>